<?xml version="1.0" encoding="UTF-8"?><svg xmlns="http://www.w3.org/2000/svg" xmlns:xlink="http://www.w3.org/1999/xlink" fill-opacity="1" color-rendering="auto" color-interpolation="auto" text-rendering="auto" stroke="black" stroke-linecap="square" width="1369" stroke-miterlimit="10" shape-rendering="auto" stroke-opacity="1" fill="black" stroke-dasharray="none" font-weight="normal" stroke-width="1" height="1214" font-family="'Dialog'" font-style="normal" stroke-linejoin="miter" font-size="12px" stroke-dashoffset="0" image-rendering="auto">
  <!--Generated by ySVG 2.5-->
  <defs id="genericDefs"/>
  <g>
    <defs id="defs1">
      <linearGradient x1="74" gradientUnits="userSpaceOnUse" x2="804" y1="212" y2="531" id="linearGradient1" spreadMethod="reflect">
        <stop stop-opacity="1" stop-color="white" offset="0%"/>
        <stop stop-opacity="1" stop-color="white" offset="100%"/>
      </linearGradient>
      <linearGradient x1="153" gradientUnits="userSpaceOnUse" x2="275" y1="263" y2="348" id="linearGradient2" spreadMethod="reflect">
        <stop stop-opacity="1" stop-color="rgb(232,238,247)" offset="0%"/>
        <stop stop-opacity="1" stop-color="rgb(183,201,227)" offset="100%"/>
      </linearGradient>
      <linearGradient x1="153" gradientUnits="userSpaceOnUse" x2="275" y1="378" y2="463" id="linearGradient3" spreadMethod="reflect">
        <stop stop-opacity="1" stop-color="rgb(232,238,247)" offset="0%"/>
        <stop stop-opacity="1" stop-color="rgb(183,201,227)" offset="100%"/>
      </linearGradient>
      <linearGradient x1="305" gradientUnits="userSpaceOnUse" x2="427" y1="263" y2="348" id="linearGradient4" spreadMethod="reflect">
        <stop stop-opacity="1" stop-color="rgb(232,238,247)" offset="0%"/>
        <stop stop-opacity="1" stop-color="rgb(183,201,227)" offset="100%"/>
      </linearGradient>
      <linearGradient x1="305" gradientUnits="userSpaceOnUse" x2="427" y1="378" y2="463" id="linearGradient5" spreadMethod="reflect">
        <stop stop-opacity="1" stop-color="rgb(232,238,247)" offset="0%"/>
        <stop stop-opacity="1" stop-color="rgb(183,201,227)" offset="100%"/>
      </linearGradient>
      <linearGradient x1="457" gradientUnits="userSpaceOnUse" x2="579" y1="263" y2="348" id="linearGradient6" spreadMethod="reflect">
        <stop stop-opacity="1" stop-color="rgb(232,238,247)" offset="0%"/>
        <stop stop-opacity="1" stop-color="rgb(183,201,227)" offset="100%"/>
      </linearGradient>
      <linearGradient x1="457" gradientUnits="userSpaceOnUse" x2="579" y1="378" y2="463" id="linearGradient7" spreadMethod="reflect">
        <stop stop-opacity="1" stop-color="rgb(232,238,247)" offset="0%"/>
        <stop stop-opacity="1" stop-color="rgb(183,201,227)" offset="100%"/>
      </linearGradient>
      <linearGradient x1="609" gradientUnits="userSpaceOnUse" x2="731" y1="263" y2="348" id="linearGradient8" spreadMethod="reflect">
        <stop stop-opacity="1" stop-color="rgb(232,238,247)" offset="0%"/>
        <stop stop-opacity="1" stop-color="rgb(183,201,227)" offset="100%"/>
      </linearGradient>
      <linearGradient x1="609" gradientUnits="userSpaceOnUse" x2="731" y1="378" y2="463" id="linearGradient9" spreadMethod="reflect">
        <stop stop-opacity="1" stop-color="rgb(232,238,247)" offset="0%"/>
        <stop stop-opacity="1" stop-color="rgb(183,201,227)" offset="100%"/>
      </linearGradient>
      <linearGradient x1="894" gradientUnits="userSpaceOnUse" x2="1293" y1="212" y2="531" id="linearGradient10" spreadMethod="reflect">
        <stop stop-opacity="1" stop-color="white" offset="0%"/>
        <stop stop-opacity="1" stop-color="white" offset="100%"/>
      </linearGradient>
      <linearGradient x1="946" gradientUnits="userSpaceOnUse" x2="1068" y1="263" y2="348" id="linearGradient11" spreadMethod="reflect">
        <stop stop-opacity="1" stop-color="rgb(232,238,247)" offset="0%"/>
        <stop stop-opacity="1" stop-color="rgb(183,201,227)" offset="100%"/>
      </linearGradient>
      <linearGradient x1="946" gradientUnits="userSpaceOnUse" x2="1068" y1="378" y2="463" id="linearGradient12" spreadMethod="reflect">
        <stop stop-opacity="1" stop-color="rgb(232,238,247)" offset="0%"/>
        <stop stop-opacity="1" stop-color="rgb(183,201,227)" offset="100%"/>
      </linearGradient>
      <linearGradient x1="1098" gradientUnits="userSpaceOnUse" x2="1220" y1="263" y2="348" id="linearGradient13" spreadMethod="reflect">
        <stop stop-opacity="1" stop-color="rgb(232,238,247)" offset="0%"/>
        <stop stop-opacity="1" stop-color="rgb(183,201,227)" offset="100%"/>
      </linearGradient>
      <linearGradient x1="1098" gradientUnits="userSpaceOnUse" x2="1220" y1="378" y2="463" id="linearGradient14" spreadMethod="reflect">
        <stop stop-opacity="1" stop-color="rgb(232,238,247)" offset="0%"/>
        <stop stop-opacity="1" stop-color="rgb(183,201,227)" offset="100%"/>
      </linearGradient>
      <linearGradient x1="59" gradientUnits="userSpaceOnUse" x2="1308" y1="-174.3765" y2="144.6235" id="linearGradient15" spreadMethod="reflect">
        <stop stop-opacity="1" stop-color="white" offset="0%"/>
        <stop stop-opacity="1" stop-color="white" offset="100%"/>
      </linearGradient>
      <linearGradient x1="148.7344" gradientUnits="userSpaceOnUse" x2="270.7344" y1="-140.3125" y2="122.4219" id="linearGradient16" spreadMethod="reflect">
        <stop stop-opacity="1" stop-color="rgb(232,238,247)" offset="0%"/>
        <stop stop-opacity="1" stop-color="rgb(183,201,227)" offset="100%"/>
      </linearGradient>
      <linearGradient x1="330.7188" gradientUnits="userSpaceOnUse" x2="452.7188" y1="-140.3125" y2="122.4219" id="linearGradient17" spreadMethod="reflect">
        <stop stop-opacity="1" stop-color="rgb(232,238,247)" offset="0%"/>
        <stop stop-opacity="1" stop-color="rgb(183,201,227)" offset="100%"/>
      </linearGradient>
      <linearGradient x1="512.7031" gradientUnits="userSpaceOnUse" x2="634.7031" y1="-140.3125" y2="122.4219" id="linearGradient18" spreadMethod="reflect">
        <stop stop-opacity="1" stop-color="rgb(232,238,247)" offset="0%"/>
        <stop stop-opacity="1" stop-color="rgb(183,201,227)" offset="100%"/>
      </linearGradient>
      <linearGradient x1="694.6875" gradientUnits="userSpaceOnUse" x2="816.6875" y1="-140.3125" y2="122.4219" id="linearGradient19" spreadMethod="reflect">
        <stop stop-opacity="1" stop-color="rgb(232,238,247)" offset="0%"/>
        <stop stop-opacity="1" stop-color="rgb(183,201,227)" offset="100%"/>
      </linearGradient>
      <linearGradient x1="876.6719" gradientUnits="userSpaceOnUse" x2="998.6719" y1="-140.3125" y2="122.4219" id="linearGradient20" spreadMethod="reflect">
        <stop stop-opacity="1" stop-color="rgb(232,238,247)" offset="0%"/>
        <stop stop-opacity="1" stop-color="rgb(183,201,227)" offset="100%"/>
      </linearGradient>
      <linearGradient x1="1058.6562" gradientUnits="userSpaceOnUse" x2="1180.6562" y1="-140.3125" y2="122.4219" id="linearGradient21" spreadMethod="reflect">
        <stop stop-opacity="1" stop-color="rgb(232,238,247)" offset="0%"/>
        <stop stop-opacity="1" stop-color="rgb(183,201,227)" offset="100%"/>
      </linearGradient>
      <linearGradient x1="656.9688" gradientUnits="userSpaceOnUse" x2="778.9688" y1="-518.2373" y2="-255.5029" id="linearGradient22" spreadMethod="reflect">
        <stop stop-opacity="1" stop-color="rgb(232,238,247)" offset="0%"/>
        <stop stop-opacity="1" stop-color="rgb(183,201,227)" offset="100%"/>
      </linearGradient>
      <clipPath clipPathUnits="userSpaceOnUse" id="clipPath1">
        <path d="M0 0 L1369 0 L1369 1214 L0 1214 L0 0 Z"/>
      </clipPath>
      <clipPath clipPathUnits="userSpaceOnUse" id="clipPath2">
        <path d="M-1 -623 L1368 -623 L1368 591 L-1 591 L-1 -623 Z"/>
      </clipPath>
    </defs>
    <g fill="white" text-rendering="geometricPrecision" shape-rendering="geometricPrecision" transform="translate(1,623)" stroke="white">
      <rect x="-1" width="1369" height="1214" y="-623" clip-path="url(#clipPath2)" stroke="none"/>
    </g>
    <g fill="rgb(245,245,245)" text-rendering="geometricPrecision" shape-rendering="geometricPrecision" transform="matrix(1,0,0,1,1,623)" stroke="rgb(245,245,245)">
      <rect x="29" y="-592.9902" clip-path="url(#clipPath2)" width="1309" rx="4" ry="4" height="1153.9902" stroke="none"/>
      <rect x="29" y="-592.9902" clip-path="url(#clipPath2)" fill="rgb(235,235,235)" width="1309" height="22.3765" stroke="none"/>
    </g>
    <g font-size="15px" stroke-linecap="butt" transform="matrix(1,0,0,1,1,623)" text-rendering="geometricPrecision" font-family="sans-serif" shape-rendering="geometricPrecision" stroke-miterlimit="1.45">
      <text x="1164.2983" xml:space="preserve" y="-575.9097" clip-path="url(#clipPath2)" stroke="none">大中型Android应用架构图</text>
      <rect x="29" y="-592.9902" clip-path="url(#clipPath2)" fill="none" width="1309" stroke-dasharray="6,2" rx="4" ry="4" height="1153.9902"/>
    </g>
    <g fill="rgb(225,225,225)" text-rendering="geometricPrecision" shape-rendering="geometricPrecision" transform="matrix(1,0,0,1,1,623)" stroke="rgb(225,225,225)">
      <rect x="59" y="174.6235" clip-path="url(#clipPath2)" width="760" rx="4" ry="4" height="371.3765" stroke="none"/>
      <rect x="59" y="174.6235" clip-path="url(#clipPath2)" fill="rgb(235,235,235)" width="760" height="22.3765" stroke="none"/>
    </g>
    <g font-size="15px" stroke-linecap="butt" transform="matrix(1,0,0,1,1,623)" text-rendering="geometricPrecision" font-family="sans-serif" shape-rendering="geometricPrecision" stroke-miterlimit="1.45">
      <text x="730.3252" xml:space="preserve" y="191.7041" clip-path="url(#clipPath2)" stroke="none">基础库(Java)</text>
      <rect x="59" y="174.6235" clip-path="url(#clipPath2)" fill="none" width="760" stroke-dasharray="6,2" rx="4" ry="4" height="371.3765"/>
    </g>
    <g fill="url(#linearGradient1)" text-rendering="geometricPrecision" shape-rendering="geometricPrecision" transform="matrix(1,0,0,1,1,623)" stroke="url(#linearGradient1)">
      <path d="M74 212 L804 212 L804 531 L74 531 Z" stroke="none" clip-path="url(#clipPath2)"/>
    </g>
    <g text-rendering="geometricPrecision" stroke-miterlimit="1.45" shape-rendering="geometricPrecision" transform="matrix(1,0,0,1,1,623)" stroke-linecap="butt">
      <path fill="none" d="M74 212 L804 212 L804 531 L74 531 Z" clip-path="url(#clipPath2)"/>
    </g>
    <g fill="url(#linearGradient2)" text-rendering="geometricPrecision" shape-rendering="geometricPrecision" transform="matrix(1,0,0,1,1,623)" stroke="url(#linearGradient2)">
      <path d="M153 263 L275 263 L275 348 L153 348 Z" stroke="none" clip-path="url(#clipPath2)"/>
    </g>
    <g text-rendering="geometricPrecision" stroke-miterlimit="1.45" shape-rendering="geometricPrecision" transform="matrix(1,0,0,1,1,623)" stroke-linecap="butt">
      <path fill="none" d="M153 263 L275 263 L275 348 L153 348 Z" clip-path="url(#clipPath2)"/>
      <text x="198.335" xml:space="preserve" y="310.2139" clip-path="url(#clipPath2)" font-family="sans-serif" stroke="none">HTTP</text>
    </g>
    <g fill="url(#linearGradient3)" text-rendering="geometricPrecision" shape-rendering="geometricPrecision" transform="matrix(1,0,0,1,1,623)" stroke="url(#linearGradient3)">
      <path d="M153 378 L275 378 L275 463 L153 463 Z" stroke="none" clip-path="url(#clipPath2)"/>
    </g>
    <g text-rendering="geometricPrecision" stroke-miterlimit="1.45" shape-rendering="geometricPrecision" transform="matrix(1,0,0,1,1,623)" stroke-linecap="butt">
      <path fill="none" d="M153 378 L275 378 L275 463 L153 463 Z" clip-path="url(#clipPath2)"/>
      <text x="202" xml:space="preserve" y="425.2139" clip-path="url(#clipPath2)" font-family="sans-serif" stroke="none">TCP</text>
    </g>
    <g fill="url(#linearGradient4)" text-rendering="geometricPrecision" shape-rendering="geometricPrecision" transform="matrix(1,0,0,1,1,623)" stroke="url(#linearGradient4)">
      <path d="M305 263 L427 263 L427 348 L305 348 Z" stroke="none" clip-path="url(#clipPath2)"/>
    </g>
    <g text-rendering="geometricPrecision" stroke-miterlimit="1.45" shape-rendering="geometricPrecision" transform="matrix(1,0,0,1,1,623)" stroke-linecap="butt">
      <path fill="none" d="M305 263 L427 263 L427 348 L305 348 Z" clip-path="url(#clipPath2)"/>
      <text x="346.6641" xml:space="preserve" y="310.2139" clip-path="url(#clipPath2)" font-family="sans-serif" stroke="none">IMAGE</text>
    </g>
    <g fill="url(#linearGradient5)" text-rendering="geometricPrecision" shape-rendering="geometricPrecision" transform="matrix(1,0,0,1,1,623)" stroke="url(#linearGradient5)">
      <path d="M305 378 L427 378 L427 463 L305 463 Z" stroke="none" clip-path="url(#clipPath2)"/>
    </g>
    <g text-rendering="geometricPrecision" stroke-miterlimit="1.45" shape-rendering="geometricPrecision" transform="matrix(1,0,0,1,1,623)" stroke-linecap="butt">
      <path fill="none" d="M305 378 L427 378 L427 463 L305 463 Z" clip-path="url(#clipPath2)"/>
      <text x="347.3262" xml:space="preserve" y="425.2139" clip-path="url(#clipPath2)" font-family="sans-serif" stroke="none">Widget</text>
    </g>
    <g fill="url(#linearGradient6)" text-rendering="geometricPrecision" shape-rendering="geometricPrecision" transform="matrix(1,0,0,1,1,623)" stroke="url(#linearGradient6)">
      <path d="M457 263 L579 263 L579 348 L457 348 Z" stroke="none" clip-path="url(#clipPath2)"/>
    </g>
    <g text-rendering="geometricPrecision" stroke-miterlimit="1.45" shape-rendering="geometricPrecision" transform="matrix(1,0,0,1,1,623)" stroke-linecap="butt">
      <path fill="none" d="M457 263 L579 263 L579 348 L457 348 Z" clip-path="url(#clipPath2)"/>
      <text x="511.666" xml:space="preserve" y="310.2139" clip-path="url(#clipPath2)" font-family="sans-serif" stroke="none">IO</text>
    </g>
    <g fill="url(#linearGradient7)" text-rendering="geometricPrecision" shape-rendering="geometricPrecision" transform="matrix(1,0,0,1,1,623)" stroke="url(#linearGradient7)">
      <path d="M457 378 L579 378 L579 463 L457 463 Z" stroke="none" clip-path="url(#clipPath2)"/>
    </g>
    <g text-rendering="geometricPrecision" stroke-miterlimit="1.45" shape-rendering="geometricPrecision" transform="matrix(1,0,0,1,1,623)" stroke-linecap="butt">
      <path fill="none" d="M457 378 L579 378 L579 463 L457 463 Z" clip-path="url(#clipPath2)"/>
      <text x="509.334" xml:space="preserve" y="425.2139" clip-path="url(#clipPath2)" font-family="sans-serif" stroke="none">Util</text>
    </g>
    <g fill="url(#linearGradient8)" text-rendering="geometricPrecision" shape-rendering="geometricPrecision" transform="matrix(1,0,0,1,1,623)" stroke="url(#linearGradient8)">
      <path d="M609 263 L731 263 L731 348 L609 348 Z" stroke="none" clip-path="url(#clipPath2)"/>
    </g>
    <g text-rendering="geometricPrecision" stroke-miterlimit="1.45" shape-rendering="geometricPrecision" transform="matrix(1,0,0,1,1,623)" stroke-linecap="butt">
      <path fill="none" d="M609 263 L731 263 L731 348 L609 348 Z" clip-path="url(#clipPath2)"/>
      <text x="648.6602" xml:space="preserve" y="310.2139" clip-path="url(#clipPath2)" font-family="sans-serif" stroke="none">SQLITE</text>
    </g>
    <g fill="url(#linearGradient9)" text-rendering="geometricPrecision" shape-rendering="geometricPrecision" transform="matrix(1,0,0,1,1,623)" stroke="url(#linearGradient9)">
      <path d="M609 378 L731 378 L731 463 L609 463 Z" stroke="none" clip-path="url(#clipPath2)"/>
    </g>
    <g text-rendering="geometricPrecision" stroke-miterlimit="1.45" shape-rendering="geometricPrecision" transform="matrix(1,0,0,1,1,623)" stroke-linecap="butt">
      <path fill="none" d="M609 378 L731 378 L731 463 L609 463 Z" clip-path="url(#clipPath2)"/>
      <text x="664.999" xml:space="preserve" y="425.2139" clip-path="url(#clipPath2)" font-family="sans-serif" stroke="none">...</text>
    </g>
    <g fill="rgb(225,225,225)" text-rendering="geometricPrecision" shape-rendering="geometricPrecision" transform="matrix(1,0,0,1,1,623)" stroke="rgb(225,225,225)">
      <rect x="879" y="174.6235" clip-path="url(#clipPath2)" width="429" rx="4" ry="4" height="371.3765" stroke="none"/>
      <rect x="879" y="174.6235" clip-path="url(#clipPath2)" fill="rgb(235,235,235)" width="429" height="22.3765" stroke="none"/>
    </g>
    <g font-size="15px" stroke-linecap="butt" transform="matrix(1,0,0,1,1,623)" text-rendering="geometricPrecision" font-family="sans-serif" shape-rendering="geometricPrecision" stroke-miterlimit="1.45">
      <text x="1187.6479" xml:space="preserve" y="191.7041" clip-path="url(#clipPath2)" stroke="none">底层库（C/C++）</text>
      <rect x="879" y="174.6235" clip-path="url(#clipPath2)" fill="none" width="429" stroke-dasharray="6,2" rx="4" ry="4" height="371.3765"/>
    </g>
    <g fill="url(#linearGradient10)" text-rendering="geometricPrecision" shape-rendering="geometricPrecision" transform="matrix(1,0,0,1,1,623)" stroke="url(#linearGradient10)">
      <path d="M894 212 L1293 212 L1293 531 L894 531 Z" stroke="none" clip-path="url(#clipPath2)"/>
    </g>
    <g text-rendering="geometricPrecision" stroke-miterlimit="1.45" shape-rendering="geometricPrecision" transform="matrix(1,0,0,1,1,623)" stroke-linecap="butt">
      <path fill="none" d="M894 212 L1293 212 L1293 531 L894 531 Z" clip-path="url(#clipPath2)"/>
    </g>
    <g fill="url(#linearGradient11)" text-rendering="geometricPrecision" shape-rendering="geometricPrecision" transform="matrix(1,0,0,1,1,623)" stroke="url(#linearGradient11)">
      <path d="M946 263 L1068 263 L1068 348 L946 348 Z" stroke="none" clip-path="url(#clipPath2)"/>
    </g>
    <g text-rendering="geometricPrecision" stroke-miterlimit="1.45" shape-rendering="geometricPrecision" transform="matrix(1,0,0,1,1,623)" stroke-linecap="butt">
      <path fill="none" d="M946 263 L1068 263 L1068 348 L946 348 Z" clip-path="url(#clipPath2)"/>
      <text x="999.6611" xml:space="preserve" y="310.2139" clip-path="url(#clipPath2)" font-family="sans-serif" stroke="none">So</text>
    </g>
    <g fill="url(#linearGradient12)" text-rendering="geometricPrecision" shape-rendering="geometricPrecision" transform="matrix(1,0,0,1,1,623)" stroke="url(#linearGradient12)">
      <path d="M946 378 L1068 378 L1068 463 L946 463 Z" stroke="none" clip-path="url(#clipPath2)"/>
    </g>
    <g text-rendering="geometricPrecision" stroke-miterlimit="1.45" shape-rendering="geometricPrecision" transform="matrix(1,0,0,1,1,623)" stroke-linecap="butt">
      <path fill="none" d="M946 378 L1068 378 L1068 463 L946 463 Z" clip-path="url(#clipPath2)"/>
      <text x="999.6611" xml:space="preserve" y="425.2139" clip-path="url(#clipPath2)" font-family="sans-serif" stroke="none">So</text>
    </g>
    <g fill="url(#linearGradient13)" text-rendering="geometricPrecision" shape-rendering="geometricPrecision" transform="matrix(1,0,0,1,1,623)" stroke="url(#linearGradient13)">
      <path d="M1098 263 L1220 263 L1220 348 L1098 348 Z" stroke="none" clip-path="url(#clipPath2)"/>
    </g>
    <g text-rendering="geometricPrecision" stroke-miterlimit="1.45" shape-rendering="geometricPrecision" transform="matrix(1,0,0,1,1,623)" stroke-linecap="butt">
      <path fill="none" d="M1098 263 L1220 263 L1220 348 L1098 348 Z" clip-path="url(#clipPath2)"/>
      <text x="1151.6611" xml:space="preserve" y="310.2139" clip-path="url(#clipPath2)" font-family="sans-serif" stroke="none">So</text>
    </g>
    <g fill="url(#linearGradient14)" text-rendering="geometricPrecision" shape-rendering="geometricPrecision" transform="matrix(1,0,0,1,1,623)" stroke="url(#linearGradient14)">
      <path d="M1098 378 L1220 378 L1220 463 L1098 463 Z" stroke="none" clip-path="url(#clipPath2)"/>
    </g>
    <g text-rendering="geometricPrecision" stroke-miterlimit="1.45" shape-rendering="geometricPrecision" transform="matrix(1,0,0,1,1,623)" stroke-linecap="butt">
      <path fill="none" d="M1098 378 L1220 378 L1220 463 L1098 463 Z" clip-path="url(#clipPath2)"/>
      <text x="1153.999" xml:space="preserve" y="425.2139" clip-path="url(#clipPath2)" font-family="sans-serif" stroke="none">...</text>
    </g>
    <g fill="rgb(225,225,225)" text-rendering="geometricPrecision" shape-rendering="geometricPrecision" transform="matrix(1,0,0,1,1,623)" stroke="rgb(225,225,225)">
      <rect x="44" y="-211.7529" clip-path="url(#clipPath2)" width="1279" rx="4" ry="4" height="371.3765" stroke="none"/>
      <rect x="44" y="-211.7529" clip-path="url(#clipPath2)" fill="rgb(235,235,235)" width="1279" height="22.3765" stroke="none"/>
    </g>
    <g font-size="15px" stroke-linecap="butt" transform="matrix(1,0,0,1,1,623)" text-rendering="geometricPrecision" font-family="sans-serif" shape-rendering="geometricPrecision" stroke-miterlimit="1.45">
      <text x="1199.3154" xml:space="preserve" y="-194.6724" clip-path="url(#clipPath2)" stroke="none">业务模块（Java）</text>
      <rect x="44" y="-211.7529" clip-path="url(#clipPath2)" fill="none" width="1279" stroke-dasharray="6,2" rx="4" ry="4" height="371.3765"/>
    </g>
    <g fill="url(#linearGradient15)" text-rendering="geometricPrecision" shape-rendering="geometricPrecision" transform="matrix(1,0,0,1,1,623)" stroke="url(#linearGradient15)">
      <path d="M59 -174.3765 L1308 -174.3765 L1308 144.6235 L59 144.6235 Z" stroke="none" clip-path="url(#clipPath2)"/>
    </g>
    <g text-rendering="geometricPrecision" stroke-miterlimit="1.45" shape-rendering="geometricPrecision" transform="matrix(1,0,0,1,1,623)" stroke-linecap="butt">
      <path fill="none" d="M59 -174.3765 L1308 -174.3765 L1308 144.6235 L59 144.6235 Z" clip-path="url(#clipPath2)"/>
    </g>
    <g fill="url(#linearGradient16)" text-rendering="geometricPrecision" shape-rendering="geometricPrecision" transform="matrix(1,0,0,1,1,623)" stroke="url(#linearGradient16)">
      <path d="M148.7344 -140.3125 L270.7344 -140.3125 L270.7344 122.4219 L148.7344 122.4219 Z" stroke="none" clip-path="url(#clipPath2)"/>
    </g>
    <g text-rendering="geometricPrecision" stroke-miterlimit="1.45" shape-rendering="geometricPrecision" transform="matrix(1,0,0,1,1,623)" stroke-linecap="butt">
      <path fill="none" d="M148.7344 -140.3125 L270.7344 -140.3125 L270.7344 122.4219 L148.7344 122.4219 Z" clip-path="url(#clipPath2)"/>
      <text x="203.7344" xml:space="preserve" y="-33.6338" clip-path="url(#clipPath2)" font-family="sans-serif" stroke="none">业</text>
      <text x="203.7344" xml:space="preserve" y="-18.9326" clip-path="url(#clipPath2)" font-family="sans-serif" stroke="none">务</text>
      <text x="203.7344" xml:space="preserve" y="-4.2314" clip-path="url(#clipPath2)" font-family="sans-serif" stroke="none">模</text>
      <text x="203.7344" xml:space="preserve" y="10.4697" clip-path="url(#clipPath2)" font-family="sans-serif" stroke="none">块</text>
      <text x="203.7344" xml:space="preserve" y="25.1709" clip-path="url(#clipPath2)" font-family="sans-serif" stroke="none">一</text>
    </g>
    <g fill="url(#linearGradient17)" text-rendering="geometricPrecision" shape-rendering="geometricPrecision" transform="matrix(1,0,0,1,1,623)" stroke="url(#linearGradient17)">
      <path d="M330.7188 -140.3125 L452.7188 -140.3125 L452.7188 122.4219 L330.7188 122.4219 Z" stroke="none" clip-path="url(#clipPath2)"/>
    </g>
    <g text-rendering="geometricPrecision" stroke-miterlimit="1.45" shape-rendering="geometricPrecision" transform="matrix(1,0,0,1,1,623)" stroke-linecap="butt">
      <path fill="none" d="M330.7188 -140.3125 L452.7188 -140.3125 L452.7188 122.4219 L330.7188 122.4219 Z" clip-path="url(#clipPath2)"/>
      <text x="385.7188" xml:space="preserve" y="-33.6338" clip-path="url(#clipPath2)" font-family="sans-serif" stroke="none">业</text>
      <text x="385.7188" xml:space="preserve" y="-18.9326" clip-path="url(#clipPath2)" font-family="sans-serif" stroke="none">务</text>
      <text x="385.7188" xml:space="preserve" y="-4.2314" clip-path="url(#clipPath2)" font-family="sans-serif" stroke="none">模</text>
      <text x="385.7188" xml:space="preserve" y="10.4697" clip-path="url(#clipPath2)" font-family="sans-serif" stroke="none">块</text>
      <text x="385.7188" xml:space="preserve" y="25.1709" clip-path="url(#clipPath2)" font-family="sans-serif" stroke="none">二</text>
    </g>
    <g fill="url(#linearGradient18)" text-rendering="geometricPrecision" shape-rendering="geometricPrecision" transform="matrix(1,0,0,1,1,623)" stroke="url(#linearGradient18)">
      <path d="M512.7031 -140.3125 L634.7031 -140.3125 L634.7031 122.4219 L512.7031 122.4219 Z" stroke="none" clip-path="url(#clipPath2)"/>
    </g>
    <g text-rendering="geometricPrecision" stroke-miterlimit="1.45" shape-rendering="geometricPrecision" transform="matrix(1,0,0,1,1,623)" stroke-linecap="butt">
      <path fill="none" d="M512.7031 -140.3125 L634.7031 -140.3125 L634.7031 122.4219 L512.7031 122.4219 Z" clip-path="url(#clipPath2)"/>
      <text x="567.7031" xml:space="preserve" y="-33.6338" clip-path="url(#clipPath2)" font-family="sans-serif" stroke="none">业</text>
      <text x="567.7031" xml:space="preserve" y="-18.9326" clip-path="url(#clipPath2)" font-family="sans-serif" stroke="none">务</text>
      <text x="567.7031" xml:space="preserve" y="-4.2314" clip-path="url(#clipPath2)" font-family="sans-serif" stroke="none">模</text>
      <text x="567.7031" xml:space="preserve" y="10.4697" clip-path="url(#clipPath2)" font-family="sans-serif" stroke="none">块</text>
      <text x="567.7031" xml:space="preserve" y="25.1709" clip-path="url(#clipPath2)" font-family="sans-serif" stroke="none">三</text>
    </g>
    <g fill="url(#linearGradient19)" text-rendering="geometricPrecision" shape-rendering="geometricPrecision" transform="matrix(1,0,0,1,1,623)" stroke="url(#linearGradient19)">
      <path d="M694.6875 -140.3125 L816.6875 -140.3125 L816.6875 122.4219 L694.6875 122.4219 Z" stroke="none" clip-path="url(#clipPath2)"/>
    </g>
    <g text-rendering="geometricPrecision" stroke-miterlimit="1.45" shape-rendering="geometricPrecision" transform="matrix(1,0,0,1,1,623)" stroke-linecap="butt">
      <path fill="none" d="M694.6875 -140.3125 L816.6875 -140.3125 L816.6875 122.4219 L694.6875 122.4219 Z" clip-path="url(#clipPath2)"/>
      <text x="749.6875" xml:space="preserve" y="-33.6338" clip-path="url(#clipPath2)" font-family="sans-serif" stroke="none">业</text>
      <text x="749.6875" xml:space="preserve" y="-18.9326" clip-path="url(#clipPath2)" font-family="sans-serif" stroke="none">务</text>
      <text x="749.6875" xml:space="preserve" y="-4.2314" clip-path="url(#clipPath2)" font-family="sans-serif" stroke="none">模</text>
      <text x="749.6875" xml:space="preserve" y="10.4697" clip-path="url(#clipPath2)" font-family="sans-serif" stroke="none">块</text>
      <text x="749.6875" xml:space="preserve" y="25.1709" clip-path="url(#clipPath2)" font-family="sans-serif" stroke="none">四</text>
    </g>
    <g fill="url(#linearGradient20)" text-rendering="geometricPrecision" shape-rendering="geometricPrecision" transform="matrix(1,0,0,1,1,623)" stroke="url(#linearGradient20)">
      <path d="M876.6719 -140.3125 L998.6719 -140.3125 L998.6719 122.4219 L876.6719 122.4219 Z" stroke="none" clip-path="url(#clipPath2)"/>
    </g>
    <g text-rendering="geometricPrecision" stroke-miterlimit="1.45" shape-rendering="geometricPrecision" transform="matrix(1,0,0,1,1,623)" stroke-linecap="butt">
      <path fill="none" d="M876.6719 -140.3125 L998.6719 -140.3125 L998.6719 122.4219 L876.6719 122.4219 Z" clip-path="url(#clipPath2)"/>
      <text x="931.6719" xml:space="preserve" y="-33.6338" clip-path="url(#clipPath2)" font-family="sans-serif" stroke="none">业</text>
      <text x="931.6719" xml:space="preserve" y="-18.9326" clip-path="url(#clipPath2)" font-family="sans-serif" stroke="none">务</text>
      <text x="931.6719" xml:space="preserve" y="-4.2314" clip-path="url(#clipPath2)" font-family="sans-serif" stroke="none">模</text>
      <text x="931.6719" xml:space="preserve" y="10.4697" clip-path="url(#clipPath2)" font-family="sans-serif" stroke="none">块</text>
      <text x="931.6719" xml:space="preserve" y="25.1709" clip-path="url(#clipPath2)" font-family="sans-serif" stroke="none">五</text>
    </g>
    <g fill="url(#linearGradient21)" text-rendering="geometricPrecision" shape-rendering="geometricPrecision" transform="matrix(1,0,0,1,1,623)" stroke="url(#linearGradient21)">
      <path d="M1058.6562 -140.3125 L1180.6562 -140.3125 L1180.6562 122.4219 L1058.6562 122.4219 Z" stroke="none" clip-path="url(#clipPath2)"/>
    </g>
    <g text-rendering="geometricPrecision" stroke-miterlimit="1.45" shape-rendering="geometricPrecision" transform="matrix(1,0,0,1,1,623)" stroke-linecap="butt">
      <path fill="none" d="M1058.6562 -140.3125 L1180.6562 -140.3125 L1180.6562 122.4219 L1058.6562 122.4219 Z" clip-path="url(#clipPath2)"/>
      <text x="1101.6562" xml:space="preserve" y="-4.2314" clip-path="url(#clipPath2)" font-family="sans-serif" stroke="none">。。。</text>
    </g>
    <g fill="rgb(225,225,225)" text-rendering="geometricPrecision" shape-rendering="geometricPrecision" transform="matrix(1,0,0,1,1,623)" stroke="rgb(225,225,225)">
      <rect x="525.7188" y="-555.6138" clip-path="url(#clipPath2)" width="374.5" rx="4" ry="4" height="328.8608" stroke="none"/>
      <rect x="525.7188" y="-555.6138" clip-path="url(#clipPath2)" fill="rgb(235,235,235)" width="374.5" height="22.3765" stroke="none"/>
    </g>
    <g font-size="15px" stroke-linecap="butt" transform="matrix(1,0,0,1,1,623)" text-rendering="geometricPrecision" font-family="sans-serif" shape-rendering="geometricPrecision" stroke-miterlimit="1.45">
      <text x="791.5342" xml:space="preserve" y="-538.5332" clip-path="url(#clipPath2)" stroke="none">主应用（Java）</text>
      <rect x="525.7188" y="-555.6138" clip-path="url(#clipPath2)" fill="none" width="374.5" stroke-dasharray="6,2" rx="4" ry="4" height="328.8608"/>
    </g>
    <g fill="url(#linearGradient22)" text-rendering="geometricPrecision" shape-rendering="geometricPrecision" transform="matrix(1,0,0,1,1,623)" stroke="url(#linearGradient22)">
      <path d="M656.9688 -518.2373 L778.9688 -518.2373 L778.9688 -255.5029 L656.9688 -255.5029 Z" stroke="none" clip-path="url(#clipPath2)"/>
    </g>
    <g text-rendering="geometricPrecision" stroke-miterlimit="1.45" shape-rendering="geometricPrecision" transform="matrix(1,0,0,1,1,623)" stroke-linecap="butt">
      <path fill="none" d="M656.9688 -518.2373 L778.9688 -518.2373 L778.9688 -255.5029 L656.9688 -255.5029 Z" clip-path="url(#clipPath2)"/>
      <text x="699.9688" xml:space="preserve" y="-382.1562" clip-path="url(#clipPath2)" font-family="sans-serif" stroke="none">主应用</text>
    </g>
  </g>
</svg>
