<?xml version="1.0" encoding="UTF-8"?><svg xmlns="http://www.w3.org/2000/svg" xmlns:xlink="http://www.w3.org/1999/xlink" fill-opacity="1" color-rendering="auto" color-interpolation="auto" text-rendering="auto" stroke="black" stroke-linecap="square" width="561" stroke-miterlimit="10" shape-rendering="auto" stroke-opacity="1" fill="black" stroke-dasharray="none" font-weight="normal" stroke-width="1" height="228" font-family="'Dialog'" font-style="normal" stroke-linejoin="miter" font-size="12px" stroke-dashoffset="0" image-rendering="auto">
  <!--Generated by ySVG 2.5-->
  <defs id="genericDefs"/>
  <g>
    <defs id="defs1">
      <linearGradient x1="502" gradientUnits="userSpaceOnUse" x2="630" y1="489.2969" y2="529.2969" id="linearGradient1" spreadMethod="reflect">
        <stop stop-opacity="1" stop-color="rgb(232,238,247)" offset="0%"/>
        <stop stop-opacity="1" stop-color="rgb(183,201,227)" offset="100%"/>
      </linearGradient>
      <linearGradient x1="318" gradientUnits="userSpaceOnUse" x2="446" y1="596.2969" y2="636.2969" id="linearGradient2" spreadMethod="reflect">
        <stop stop-opacity="1" stop-color="rgb(232,238,247)" offset="0%"/>
        <stop stop-opacity="1" stop-color="rgb(183,201,227)" offset="100%"/>
      </linearGradient>
      <linearGradient x1="691" gradientUnits="userSpaceOnUse" x2="819" y1="596.2969" y2="636.2969" id="linearGradient3" spreadMethod="reflect">
        <stop stop-opacity="1" stop-color="rgb(232,238,247)" offset="0%"/>
        <stop stop-opacity="1" stop-color="rgb(183,201,227)" offset="100%"/>
      </linearGradient>
      <clipPath clipPathUnits="userSpaceOnUse" id="clipPath1">
        <path d="M0 0 L561 0 L561 228 L0 228 L0 0 Z"/>
      </clipPath>
      <clipPath clipPathUnits="userSpaceOnUse" id="clipPath2">
        <path d="M288 439 L849 439 L849 667 L288 667 L288 439 Z"/>
      </clipPath>
    </defs>
    <g fill="white" text-rendering="geometricPrecision" shape-rendering="geometricPrecision" transform="translate(-288,-439)" stroke="white">
      <rect x="288" width="561" height="228" y="439" clip-path="url(#clipPath2)" stroke="none"/>
    </g>
    <g fill="rgb(245,245,245)" text-rendering="geometricPrecision" shape-rendering="geometricPrecision" transform="matrix(1,0,0,1,-288,-439)" stroke="rgb(245,245,245)">
      <rect x="303" y="454.5938" clip-path="url(#clipPath2)" width="531" rx="4" ry="4" height="196.7031" stroke="none"/>
      <rect x="303" y="454.5938" clip-path="url(#clipPath2)" fill="rgb(235,235,235)" width="531" height="19.7031" stroke="none"/>
    </g>
    <g font-size="15px" stroke-linecap="butt" transform="matrix(1,0,0,1,-288,-439)" text-rendering="geometricPrecision" font-family="sans-serif" shape-rendering="geometricPrecision" stroke-miterlimit="1.45">
      <text x="772" xml:space="preserve" y="470.0703" clip-path="url(#clipPath2)" stroke="none">并行开发</text>
      <rect x="303" y="454.5938" clip-path="url(#clipPath2)" fill="none" width="531" stroke-dasharray="6,2" rx="4" ry="4" height="196.7031"/>
    </g>
    <g fill="url(#linearGradient1)" text-rendering="geometricPrecision" shape-rendering="geometricPrecision" transform="matrix(1,0,0,1,-288,-439)" stroke="url(#linearGradient1)">
      <path d="M502 489.2969 L630 489.2969 L630 529.2969 L502 529.2969 Z" stroke="none" clip-path="url(#clipPath2)"/>
    </g>
    <g text-rendering="geometricPrecision" stroke-miterlimit="1.45" shape-rendering="geometricPrecision" transform="matrix(1,0,0,1,-288,-439)" stroke-linecap="butt">
      <path fill="none" d="M502 489.2969 L630 489.2969 L630 529.2969 L502 529.2969 Z" clip-path="url(#clipPath2)"/>
      <text x="557" xml:space="preserve" y="513.7969" clip-path="url(#clipPath2)" font-family="sans-serif" stroke="none">API</text>
    </g>
    <g fill="url(#linearGradient2)" text-rendering="geometricPrecision" shape-rendering="geometricPrecision" transform="matrix(1,0,0,1,-288,-439)" stroke="url(#linearGradient2)">
      <path d="M318 596.2969 L446 596.2969 L446 636.2969 L318 636.2969 Z" stroke="none" clip-path="url(#clipPath2)"/>
    </g>
    <g text-rendering="geometricPrecision" stroke-miterlimit="1.45" shape-rendering="geometricPrecision" transform="matrix(1,0,0,1,-288,-439)" stroke-linecap="butt">
      <path fill="none" d="M318 596.2969 L446 596.2969 L446 636.2969 L318 636.2969 Z" clip-path="url(#clipPath2)"/>
      <text x="373" xml:space="preserve" y="620.7969" clip-path="url(#clipPath2)" font-family="sans-serif" stroke="none">SDK</text>
    </g>
    <g fill="url(#linearGradient3)" text-rendering="geometricPrecision" shape-rendering="geometricPrecision" transform="matrix(1,0,0,1,-288,-439)" stroke="url(#linearGradient3)">
      <path d="M691 596.2969 L819 596.2969 L819 636.2969 L691 636.2969 Z" stroke="none" clip-path="url(#clipPath2)"/>
    </g>
    <g text-rendering="geometricPrecision" stroke-miterlimit="1.45" shape-rendering="geometricPrecision" transform="matrix(1,0,0,1,-288,-439)" stroke-linecap="butt">
      <path fill="none" d="M691 596.2969 L819 596.2969 L819 636.2969 L691 636.2969 Z" clip-path="url(#clipPath2)"/>
      <text x="737" xml:space="preserve" y="620.7969" clip-path="url(#clipPath2)" font-family="sans-serif" stroke="none">Client</text>
    </g>
    <g text-rendering="geometricPrecision" stroke-miterlimit="1.45" shape-rendering="geometricPrecision" transform="matrix(1,0,0,1,-288,-439)" stroke-linecap="butt">
      <path fill="none" d="M501.9863 509.2969 L382 509.2969 L382 588.3127" clip-path="url(#clipPath2)"/>
      <path d="M382 596.3127 L387 584.3127 L382 587.3127 L377 584.3127 Z" clip-path="url(#clipPath2)" stroke="none"/>
      <path fill="none" d="M501.9775 519.2969 L402 519.2969 L402 588.2832" clip-path="url(#clipPath2)"/>
      <path d="M402 596.2832 L407 584.2832 L402 587.2832 L397 584.2832 Z" clip-path="url(#clipPath2)" stroke="none"/>
      <path fill="none" d="M629.9998 509.2969 L755 509.2969 L755 588.3127" clip-path="url(#clipPath2)"/>
      <path d="M755 596.3127 L760 584.3127 L755 587.3127 L750 584.3127 Z" clip-path="url(#clipPath2)" stroke="none"/>
      <path fill="none" d="M445.9728 623.2969 L682.984 623.2969" clip-path="url(#clipPath2)"/>
      <path d="M690.984 623.2969 L678.984 618.2969 L681.984 623.2969 L678.984 628.2969 Z" clip-path="url(#clipPath2)" stroke="none"/>
      <path fill="none" d="M445.9791 611.2969 L682.9762 611.2969" clip-path="url(#clipPath2)"/>
      <path d="M690.9762 611.2969 L678.9762 606.2969 L681.9762 611.2969 L678.9762 616.2969 Z" clip-path="url(#clipPath2)" stroke="none"/>
      <path fill="none" d="M629.9939 519.7969 L735 519.7969 L735 588.325" clip-path="url(#clipPath2)"/>
      <path d="M735 596.325 L740 584.325 L735 587.325 L730 584.325 Z" clip-path="url(#clipPath2)" stroke="none"/>
    </g>
  </g>
</svg>
