<?xml version="1.0" encoding="UTF-8"?><svg xmlns="http://www.w3.org/2000/svg" xmlns:xlink="http://www.w3.org/1999/xlink" fill-opacity="1" color-rendering="auto" color-interpolation="auto" text-rendering="auto" stroke="black" stroke-linecap="square" width="566" stroke-miterlimit="10" shape-rendering="auto" stroke-opacity="1" fill="black" stroke-dasharray="none" font-weight="normal" stroke-width="1" height="196" font-family="'Dialog'" font-style="normal" stroke-linejoin="miter" font-size="12px" stroke-dashoffset="0" image-rendering="auto">
  <!--Generated by ySVG 2.5-->
  <defs id="genericDefs"/>
  <g>
    <defs id="defs1">
      <linearGradient x1="313" gradientUnits="userSpaceOnUse" x2="441" y1="345.2969" y2="385.2969" id="linearGradient1" spreadMethod="reflect">
        <stop stop-opacity="1" stop-color="rgb(232,238,247)" offset="0%"/>
        <stop stop-opacity="1" stop-color="rgb(183,201,227)" offset="100%"/>
      </linearGradient>
      <linearGradient x1="502" gradientUnits="userSpaceOnUse" x2="630" y1="345.2969" y2="385.2969" id="linearGradient2" spreadMethod="reflect">
        <stop stop-opacity="1" stop-color="rgb(232,238,247)" offset="0%"/>
        <stop stop-opacity="1" stop-color="rgb(183,201,227)" offset="100%"/>
      </linearGradient>
      <linearGradient x1="691" gradientUnits="userSpaceOnUse" x2="819" y1="345.2969" y2="385.2969" id="linearGradient3" spreadMethod="reflect">
        <stop stop-opacity="1" stop-color="rgb(232,238,247)" offset="0%"/>
        <stop stop-opacity="1" stop-color="rgb(183,201,227)" offset="100%"/>
      </linearGradient>
      <clipPath clipPathUnits="userSpaceOnUse" id="clipPath1">
        <path d="M0 0 L566 0 L566 196 L0 196 L0 0 Z"/>
      </clipPath>
      <clipPath clipPathUnits="userSpaceOnUse" id="clipPath2">
        <path d="M283 220 L849 220 L849 416 L283 416 L283 220 Z"/>
      </clipPath>
    </defs>
    <g fill="white" text-rendering="geometricPrecision" shape-rendering="geometricPrecision" transform="translate(-283,-220)" stroke="white">
      <rect x="283" width="566" height="196" y="220" clip-path="url(#clipPath2)" stroke="none"/>
    </g>
    <g fill="rgb(245,245,245)" text-rendering="geometricPrecision" shape-rendering="geometricPrecision" transform="matrix(1,0,0,1,-283,-220)" stroke="rgb(245,245,245)">
      <rect x="298" y="235.5938" clip-path="url(#clipPath2)" width="536" rx="4" ry="4" height="164.7031" stroke="none"/>
      <rect x="298" y="235.5938" clip-path="url(#clipPath2)" fill="rgb(235,235,235)" width="536" height="19.7031" stroke="none"/>
    </g>
    <g font-size="15px" stroke-linecap="butt" transform="matrix(1,0,0,1,-283,-220)" text-rendering="geometricPrecision" font-family="sans-serif" shape-rendering="geometricPrecision" stroke-miterlimit="1.45">
      <text x="772" xml:space="preserve" y="251.0703" clip-path="url(#clipPath2)" stroke="none">串行开发</text>
      <rect x="298" y="235.5938" clip-path="url(#clipPath2)" fill="none" width="536" stroke-dasharray="6,2" rx="4" ry="4" height="164.7031"/>
    </g>
    <g fill="url(#linearGradient1)" text-rendering="geometricPrecision" shape-rendering="geometricPrecision" transform="matrix(1,0,0,1,-283,-220)" stroke="url(#linearGradient1)">
      <path d="M313 345.2969 L441 345.2969 L441 385.2969 L313 385.2969 Z" stroke="none" clip-path="url(#clipPath2)"/>
    </g>
    <g text-rendering="geometricPrecision" stroke-miterlimit="1.45" shape-rendering="geometricPrecision" transform="matrix(1,0,0,1,-283,-220)" stroke-linecap="butt">
      <path fill="none" d="M313 345.2969 L441 345.2969 L441 385.2969 L313 385.2969 Z" clip-path="url(#clipPath2)"/>
      <text x="368" xml:space="preserve" y="369.7969" clip-path="url(#clipPath2)" font-family="sans-serif" stroke="none">API</text>
    </g>
    <g fill="url(#linearGradient2)" text-rendering="geometricPrecision" shape-rendering="geometricPrecision" transform="matrix(1,0,0,1,-283,-220)" stroke="url(#linearGradient2)">
      <path d="M502 345.2969 L630 345.2969 L630 385.2969 L502 385.2969 Z" stroke="none" clip-path="url(#clipPath2)"/>
    </g>
    <g text-rendering="geometricPrecision" stroke-miterlimit="1.45" shape-rendering="geometricPrecision" transform="matrix(1,0,0,1,-283,-220)" stroke-linecap="butt">
      <path fill="none" d="M502 345.2969 L630 345.2969 L630 385.2969 L502 385.2969 Z" clip-path="url(#clipPath2)"/>
      <text x="557" xml:space="preserve" y="369.7969" clip-path="url(#clipPath2)" font-family="sans-serif" stroke="none">SDK</text>
    </g>
    <g fill="url(#linearGradient3)" text-rendering="geometricPrecision" shape-rendering="geometricPrecision" transform="matrix(1,0,0,1,-283,-220)" stroke="url(#linearGradient3)">
      <path d="M691 345.2969 L819 345.2969 L819 385.2969 L691 385.2969 Z" stroke="none" clip-path="url(#clipPath2)"/>
    </g>
    <g text-rendering="geometricPrecision" stroke-miterlimit="1.45" shape-rendering="geometricPrecision" transform="matrix(1,0,0,1,-283,-220)" stroke-linecap="butt">
      <path fill="none" d="M691 345.2969 L819 345.2969 L819 385.2969 L691 385.2969 Z" clip-path="url(#clipPath2)"/>
      <text x="737" xml:space="preserve" y="369.7969" clip-path="url(#clipPath2)" font-family="sans-serif" stroke="none">Client</text>
    </g>
    <g text-rendering="geometricPrecision" stroke-miterlimit="1.45" shape-rendering="geometricPrecision" transform="matrix(1,0,0,1,-283,-220)" stroke-linecap="butt">
      <path fill="none" d="M440.9998 365.2969 L494.0045 365.2969" clip-path="url(#clipPath2)"/>
      <path d="M502.0045 365.2969 L490.0045 360.2969 L493.0045 365.2969 L490.0045 370.2969 Z" clip-path="url(#clipPath2)" stroke="none"/>
      <path fill="none" d="M629.9998 365.2969 L683.0045 365.2969" clip-path="url(#clipPath2)"/>
      <path d="M691.0045 365.2969 L679.0045 360.2969 L682.0045 365.2969 L679.0045 370.2969 Z" clip-path="url(#clipPath2)" stroke="none"/>
      <path fill="none" d="M377 345.2886 L377 278.2969 L755 278.2969 L755 337.2886" clip-path="url(#clipPath2)"/>
      <path d="M755 345.2886 L760 333.2886 L755 336.2886 L750 333.2886 Z" clip-path="url(#clipPath2)" stroke="none"/>
    </g>
  </g>
</svg>
