<?xml version="1.0" encoding="UTF-8"?><svg xmlns="http://www.w3.org/2000/svg" xmlns:xlink="http://www.w3.org/1999/xlink" fill-opacity="1" color-rendering="auto" color-interpolation="auto" text-rendering="auto" stroke="black" stroke-linecap="square" width="307" stroke-miterlimit="10" shape-rendering="auto" stroke-opacity="1" fill="black" stroke-dasharray="none" font-weight="normal" stroke-width="1" height="217" font-family="'Dialog'" font-style="normal" stroke-linejoin="miter" font-size="12px" stroke-dashoffset="0" image-rendering="auto">
  <!--Generated by ySVG 2.5-->
  <defs id="genericDefs"/>
  <g>
    <defs id="defs1">
      <linearGradient x1="446" gradientUnits="userSpaceOnUse" x2="723" y1="169" y2="356" id="linearGradient1" spreadMethod="reflect">
        <stop stop-opacity="1" stop-color="rgb(232,238,247)" offset="0%"/>
        <stop stop-opacity="1" stop-color="rgb(183,201,227)" offset="100%"/>
      </linearGradient>
      <linearGradient x1="494" gradientUnits="userSpaceOnUse" x2="675" y1="182" y2="241" id="linearGradient2" spreadMethod="reflect">
        <stop stop-opacity="1" stop-color="rgb(232,238,247)" offset="0%"/>
        <stop stop-opacity="1" stop-color="rgb(183,201,227)" offset="100%"/>
      </linearGradient>
      <linearGradient x1="494" gradientUnits="userSpaceOnUse" x2="675" y1="284" y2="343" id="linearGradient3" spreadMethod="reflect">
        <stop stop-opacity="1" stop-color="rgb(232,238,247)" offset="0%"/>
        <stop stop-opacity="1" stop-color="rgb(183,201,227)" offset="100%"/>
      </linearGradient>
      <clipPath clipPathUnits="userSpaceOnUse" id="clipPath1">
        <path d="M0 0 L307 0 L307 217 L0 217 L0 0 Z"/>
      </clipPath>
      <clipPath clipPathUnits="userSpaceOnUse" id="clipPath2">
        <path d="M431 154 L738 154 L738 371 L431 371 L431 154 Z"/>
      </clipPath>
    </defs>
    <g fill="white" text-rendering="geometricPrecision" shape-rendering="geometricPrecision" transform="translate(-431,-154)" stroke="white">
      <rect x="431" width="307" height="217" y="154" clip-path="url(#clipPath2)" stroke="none"/>
    </g>
    <g fill="url(#linearGradient1)" text-rendering="geometricPrecision" shape-rendering="geometricPrecision" transform="matrix(1,0,0,1,-431,-154)" stroke="url(#linearGradient1)">
      <path d="M446 169 L723 169 L723 356 L446 356 Z" stroke="none" clip-path="url(#clipPath2)"/>
    </g>
    <g text-rendering="geometricPrecision" stroke-miterlimit="1.45" shape-rendering="geometricPrecision" transform="matrix(1,0,0,1,-431,-154)" stroke-linecap="butt">
      <path fill="none" d="M446 169 L723 169 L723 356 L446 356 Z" clip-path="url(#clipPath2)"/>
    </g>
    <g fill="url(#linearGradient2)" text-rendering="geometricPrecision" shape-rendering="geometricPrecision" transform="matrix(1,0,0,1,-431,-154)" stroke="url(#linearGradient2)">
      <path d="M494 182 L675 182 L675 241 L494 241 Z" stroke="none" clip-path="url(#clipPath2)"/>
    </g>
    <g text-rendering="geometricPrecision" stroke-miterlimit="1.45" shape-rendering="geometricPrecision" transform="matrix(1,0,0,1,-431,-154)" stroke-linecap="butt">
      <path fill="none" d="M494 182 L675 182 L675 241 L494 241 Z" clip-path="url(#clipPath2)"/>
      <text x="555.8125" xml:space="preserve" y="216.0352" clip-path="url(#clipPath2)" font-family="sans-serif" stroke="none">接口 IText</text>
    </g>
    <g fill="url(#linearGradient3)" text-rendering="geometricPrecision" shape-rendering="geometricPrecision" transform="matrix(1,0,0,1,-431,-154)" stroke="url(#linearGradient3)">
      <path d="M494 284 L675 284 L675 343 L494 343 Z" stroke="none" clip-path="url(#clipPath2)"/>
    </g>
    <g text-rendering="geometricPrecision" stroke-miterlimit="1.45" shape-rendering="geometricPrecision" transform="matrix(1,0,0,1,-431,-154)" stroke-linecap="butt">
      <path fill="none" d="M494 284 L675 284 L675 343 L494 343 Z" clip-path="url(#clipPath2)"/>
      <text x="544.7002" xml:space="preserve" y="318.0352" clip-path="url(#clipPath2)" font-family="sans-serif" stroke="none">实现 TextImpl</text>
    </g>
    <g text-rendering="geometricPrecision" stroke-miterlimit="1.45" shape-rendering="geometricPrecision" transform="matrix(1,0,0,1,-431,-154)" stroke-linecap="butt">
      <path fill="none" d="M584.5 241.0342 L584.5 276.0254" clip-path="url(#clipPath2)"/>
    </g>
    <g text-rendering="geometricPrecision" stroke-miterlimit="1.45" shape-rendering="geometricPrecision" transform="matrix(1,0,0,1,-431,-154)" stroke-linecap="butt">
      <path d="M584.5 284.0254 L589.5 272.0254 L584.5 275.0254 L579.5 272.0254 Z" stroke="none" clip-path="url(#clipPath2)"/>
      <text x="543.25" xml:space="preserve" y="267.0352" clip-path="url(#clipPath2)" font-family="sans-serif" stroke="none">APT</text>
    </g>
  </g>
</svg>
