<?xml version="1.0" encoding="UTF-8"?><svg xmlns="http://www.w3.org/2000/svg" xmlns:xlink="http://www.w3.org/1999/xlink" fill-opacity="1" color-rendering="auto" color-interpolation="auto" text-rendering="auto" stroke="black" stroke-linecap="square" width="309" stroke-miterlimit="10" shape-rendering="auto" stroke-opacity="1" fill="black" stroke-dasharray="none" font-weight="normal" stroke-width="1" height="371" font-family="'Dialog'" font-style="normal" stroke-linejoin="miter" font-size="12px" stroke-dashoffset="0" image-rendering="auto">
  <!--Generated by ySVG 2.5-->
  <defs id="genericDefs"/>
  <g>
    <defs id="defs1">
      <linearGradient x1="252" gradientUnits="userSpaceOnUse" x2="531" y1="156" y2="497" id="linearGradient1" spreadMethod="reflect">
        <stop stop-opacity="1" stop-color="rgb(232,238,247)" offset="0%"/>
        <stop stop-opacity="1" stop-color="rgb(183,201,227)" offset="100%"/>
      </linearGradient>
      <linearGradient x1="308" gradientUnits="userSpaceOnUse" x2="488" y1="192" y2="232" id="linearGradient2" spreadMethod="reflect">
        <stop stop-opacity="1" stop-color="rgb(232,238,247)" offset="0%"/>
        <stop stop-opacity="1" stop-color="rgb(183,201,227)" offset="100%"/>
      </linearGradient>
      <linearGradient x1="308" gradientUnits="userSpaceOnUse" x2="488" y1="252" y2="292" id="linearGradient3" spreadMethod="reflect">
        <stop stop-opacity="1" stop-color="rgb(232,238,247)" offset="0%"/>
        <stop stop-opacity="1" stop-color="rgb(183,201,227)" offset="100%"/>
      </linearGradient>
      <linearGradient x1="308" gradientUnits="userSpaceOnUse" x2="488" y1="322" y2="362" id="linearGradient4" spreadMethod="reflect">
        <stop stop-opacity="1" stop-color="rgb(232,238,247)" offset="0%"/>
        <stop stop-opacity="1" stop-color="rgb(183,201,227)" offset="100%"/>
      </linearGradient>
      <linearGradient x1="308" gradientUnits="userSpaceOnUse" x2="488" y1="384" y2="424" id="linearGradient5" spreadMethod="reflect">
        <stop stop-opacity="1" stop-color="rgb(232,238,247)" offset="0%"/>
        <stop stop-opacity="1" stop-color="rgb(183,201,227)" offset="100%"/>
      </linearGradient>
      <clipPath clipPathUnits="userSpaceOnUse" id="clipPath1">
        <path d="M0 0 L309 0 L309 371 L0 371 L0 0 Z"/>
      </clipPath>
      <clipPath clipPathUnits="userSpaceOnUse" id="clipPath2">
        <path d="M237 141 L546 141 L546 512 L237 512 L237 141 Z"/>
      </clipPath>
    </defs>
    <g fill="white" text-rendering="geometricPrecision" shape-rendering="geometricPrecision" transform="translate(-237,-141)" stroke="white">
      <rect x="237" width="309" height="371" y="141" clip-path="url(#clipPath2)" stroke="none"/>
    </g>
    <g fill="url(#linearGradient1)" text-rendering="geometricPrecision" shape-rendering="geometricPrecision" transform="matrix(1,0,0,1,-237,-141)" stroke="url(#linearGradient1)">
      <path d="M252 156 L531 156 L531 497 L252 497 Z" stroke="none" clip-path="url(#clipPath2)"/>
    </g>
    <g text-rendering="geometricPrecision" stroke-miterlimit="1.45" shape-rendering="geometricPrecision" transform="matrix(1,0,0,1,-237,-141)" stroke-linecap="butt">
      <path fill="none" d="M252 156 L531 156 L531 497 L252 497 Z" clip-path="url(#clipPath2)"/>
      <text x="258" xml:space="preserve" y="173.6016" clip-path="url(#clipPath2)" font-family="sans-serif" stroke="none">ToyBricks</text>
    </g>
    <g fill="url(#linearGradient2)" text-rendering="geometricPrecision" shape-rendering="geometricPrecision" transform="matrix(1,0,0,1,-237,-141)" stroke="url(#linearGradient2)">
      <path d="M308 192 L488 192 L488 232 L308 232 Z" stroke="none" clip-path="url(#clipPath2)"/>
    </g>
    <g text-rendering="geometricPrecision" stroke-miterlimit="1.45" shape-rendering="geometricPrecision" transform="matrix(1,0,0,1,-237,-141)" stroke-linecap="butt">
      <path fill="none" d="M308 192 L488 192 L488 232 L308 232 Z" clip-path="url(#clipPath2)"/>
      <text x="374.75" xml:space="preserve" y="216.5352" clip-path="url(#clipPath2)" font-family="sans-serif" stroke="none">APT注解</text>
    </g>
    <g fill="url(#linearGradient3)" text-rendering="geometricPrecision" shape-rendering="geometricPrecision" transform="matrix(1,0,0,1,-237,-141)" stroke="url(#linearGradient3)">
      <path d="M308 252 L488 252 L488 292 L308 292 Z" stroke="none" clip-path="url(#clipPath2)"/>
    </g>
    <g text-rendering="geometricPrecision" stroke-miterlimit="1.45" shape-rendering="geometricPrecision" transform="matrix(1,0,0,1,-237,-141)" stroke-linecap="butt">
      <path fill="none" d="M308 252 L488 252 L488 292 L308 292 Z" clip-path="url(#clipPath2)"/>
      <text x="356.75" xml:space="preserve" y="276.5352" clip-path="url(#clipPath2)" font-family="sans-serif" stroke="none">APT注解处理器</text>
    </g>
    <g fill="url(#linearGradient4)" text-rendering="geometricPrecision" shape-rendering="geometricPrecision" transform="matrix(1,0,0,1,-237,-141)" stroke="url(#linearGradient4)">
      <path d="M308 322 L488 322 L488 362 L308 362 Z" stroke="none" clip-path="url(#clipPath2)"/>
    </g>
    <g text-rendering="geometricPrecision" stroke-miterlimit="1.45" shape-rendering="geometricPrecision" transform="matrix(1,0,0,1,-237,-141)" stroke-linecap="butt">
      <path fill="none" d="M308 322 L488 322 L488 362 L308 362 Z" clip-path="url(#clipPath2)"/>
      <text x="307.2764" xml:space="preserve" y="346.5352" clip-path="url(#clipPath2)" font-family="sans-serif" stroke="none">ToyBricks插件（Gradle Plugin）</text>
    </g>
    <g fill="url(#linearGradient5)" text-rendering="geometricPrecision" shape-rendering="geometricPrecision" transform="matrix(1,0,0,1,-237,-141)" stroke="url(#linearGradient5)">
      <path d="M308 384 L488 384 L488 424 L308 424 Z" stroke="none" clip-path="url(#clipPath2)"/>
    </g>
    <g text-rendering="geometricPrecision" stroke-miterlimit="1.45" shape-rendering="geometricPrecision" transform="matrix(1,0,0,1,-237,-141)" stroke-linecap="butt">
      <path fill="none" d="M308 384 L488 384 L488 424 L308 424 Z" clip-path="url(#clipPath2)"/>
      <text x="364.1064" xml:space="preserve" y="408.5352" clip-path="url(#clipPath2)" font-family="sans-serif" stroke="none">ToyBricks库</text>
    </g>
  </g>
</svg>
